<svg width="34" height="34" viewBox="0 0 34 34" fill="none" xmlns="http://www.w3.org/2000/svg">
<g id="icon/24px/currency-usd">
<path id="Vector" d="M9.91675 21.25H12.7501C12.7501 22.78 14.6909 24.0833 17.0001 24.0833C19.3092 24.0833 21.2501 22.78 21.2501 21.25C21.2501 19.6917 19.7767 19.125 16.6601 18.3742C13.6567 17.6233 9.91675 16.6883 9.91675 12.75C9.91675 10.2142 11.9992 8.06083 14.8751 7.33833V4.25H19.1251V7.33833C22.0009 8.06083 24.0834 10.2142 24.0834 12.75H21.2501C21.2501 11.22 19.3092 9.91667 17.0001 9.91667C14.6909 9.91667 12.7501 11.22 12.7501 12.75C12.7501 14.3083 14.2234 14.875 17.3401 15.6258C20.3434 16.3767 24.0834 17.3117 24.0834 21.25C24.0834 23.7858 22.0009 25.9392 19.1251 26.6617V29.75H14.8751V26.6617C11.9992 25.9392 9.91675 23.7858 9.91675 21.25Z" fill="url(#paint0_linear_1723_6912)"/>
</g>
<defs>
<linearGradient id="paint0_linear_1723_6912" x1="17.0001" y1="4.25" x2="17.0001" y2="29.75" gradientUnits="userSpaceOnUse">
<stop stop-color="#439DEE"/>
<stop offset="1" stop-color="#1E78E9"/>
</linearGradient>
</defs>
</svg>
